<svg width="40" height="40" viewBox="0 0 40 40" fill="none" xmlns="http://www.w3.org/2000/svg">
<circle cx="20" cy="20" r="19.5" stroke="black"/>
<path d="M20 0L20.3941 18.0188L27.6537 1.52241L21.1223 18.3204L34.1421 5.85786L21.6796 18.8777L38.4776 12.3463L21.9812 19.6059L40 20L21.9812 20.3941L38.4776 27.6537L21.6796 21.1223L34.1421 34.1421L21.1223 21.6796L27.6537 38.4776L20.3941 21.9812L20 40L19.6059 21.9812L12.3463 38.4776L18.8777 21.6796L5.85786 34.1421L18.3204 21.1223L1.52241 27.6537L18.0188 20.3941L0 20L18.0188 19.6059L1.52241 12.3463L18.3204 18.8777L5.85786 5.85786L18.8777 18.3204L12.3463 1.52241L19.6059 18.0188L20 0Z" fill="black"/>
</svg>
