<svg width="40" height="40" viewBox="0 0 40 40" fill="none" xmlns="http://www.w3.org/2000/svg">
<g clip-path="url(#clip0_491_28431)">
<circle cx="20" cy="19.9998" r="19.5" stroke="black"/>
<path d="M3 30.9998C4.61905 30.9998 4.21429 8.99976 5.83333 8.99976C7.45238 8.99976 7.04762 30.9998 8.66667 30.9998C10.2857 30.9998 9.88095 8.99976 11.5 8.99976C13.119 8.99976 12.7143 30.9998 14.3333 30.9998C15.9524 30.9998 15.5476 8.99976 17.1667 8.99976C18.7857 8.99976 18.381 30.9998 20 30.9998C21.619 30.9998 21.2143 8.99976 22.8333 8.99976C24.4524 8.99976 24.0476 30.9998 25.6667 30.9998C27.2857 30.9998 26.881 8.99976 28.5 8.99976C30.119 8.99976 29.7143 30.9998 31.3333 30.9998C32.9524 30.9998 32.5476 8.99976 34.1667 8.99976C35.7857 8.99976 35.381 30.9998 37 30.9998" stroke="black"/>
</g>
<defs>
<clipPath id="clip0_491_28431">
<rect y="-0.000244141" width="40" height="40" rx="20" fill="white"/>
</clipPath>
</defs>
</svg>
