<svg fill="none" xmlns="http://www.w3.org/2000/svg" viewBox="0 0 80 80"><path d="M0 23.006v31.896c0 4.738 0 7.107.4 9.075A20 20 0 0 0 16.022 79.6c1.968.4 4.337.4 9.075.4h29.281c7.094 0 10.642 0 13.497-.986a18 18 0 0 0 11.138-11.138C80 65.02 80 61.473 80 54.379V23.007c0-2.793 0-4.189-.14-5.363A20 20 0 0 0 62.357.14C61.182 0 59.786 0 56.993 0H22.857c-6.853 0-10.28 0-13.002 1.065a15.5 15.5 0 0 0-8.79 8.79C0 12.577 0 16.053 0 23.006Z" fill="#E1E1E1"/><rect x="2" y="2" width="70" height="70" rx="15" fill="#fff"/><path d="M22.172 62h29.8v-7.848H35.075v-.254L51.373 32.94v-6.393h-28.6v7.848H39.53v.253l-17.358 21.49V62Z" fill="#000"/></svg>